<svg width="551" height="194" viewBox="0 0 551 194" fill="none" xmlns="http://www.w3.org/2000/svg">
<path d="M129.813 13.9226L122.831 51.7332L115.799 48.4792C115.433 48.3104 114.263 48.0251 112.245 48.2448C110.338 48.4526 108.147 49.0665 106.074 50.1003C101.841 52.2111 99.0581 55.4904 98.7121 59.5188L98.1485 66.0778L91.6559 64.9097C84.1517 63.5583 81.0498 65.9198 79.5591 67.9333C79.1119 68.5372 78.748 69.1978 78.4554 69.8787C79.2991 69.8897 80.1241 69.9345 80.9249 70.0077C84.3968 70.3249 87.9054 71.1799 90.6462 71.7851C97.1195 73.2143 99.3722 73.0635 100.915 71.6601L106.281 66.7809L110.085 72.9531C112.167 76.33 113.493 79.3118 114.276 82.2739C115.057 85.2277 115.224 87.8893 115.267 90.415C115.347 95.1746 115.026 99.9234 116.652 108.326C117.252 109.49 117.982 110.685 118.879 111.904C120.432 114.017 122.505 116.243 125.297 118.526L128.201 120.897L119.568 157.481L125.015 154.997L133.12 162.364L141.691 130.866L153.295 134.011L139.574 184.459L122.788 169.204L102.234 178.588L114.809 125.292C114.227 124.747 113.672 124.197 113.138 123.647C103.107 131.207 89.1155 141.537 75.1524 151.36C59.1092 162.645 42.7326 173.544 32.5257 178.709L32.5296 178.713C28.7332 180.723 27.497 182.099 26.945 183.26C26.3514 184.509 25.9741 186.723 26.7728 191.733L14.899 193.62C13.9926 187.934 13.8932 182.718 16.0848 178.111C17.0239 176.137 18.2847 174.478 19.7675 173.041C18.9762 172.708 18.3234 172.611 17.752 172.607C15.7005 172.594 12.5924 173.707 6.62177 177.638L0 167.622C5.99229 163.676 11.8127 160.567 17.8342 160.606C22.8332 160.64 26.9854 162.783 30.7568 166.052C40.2169 160.763 54.0465 151.525 68.2253 141.551C78.1946 134.538 88.1844 127.253 96.7123 120.932L39.1162 138.738L37.2885 138.132C32.6151 136.585 28.9298 135.28 25.8022 135.292C24.4474 135.298 23.599 135.573 23.0001 135.96C22.4228 136.334 21.5657 137.14 20.7615 139.117L9.62348 134.605C11.1575 130.833 13.4151 127.863 16.4566 125.893C18.1698 124.784 19.9665 124.108 21.7477 123.721L15.396 113.615C22.4043 109.225 30.444 110.329 36.2123 114.19C39.8121 116.599 42.7605 120.227 44.243 124.589L104.082 106.088C103.07 98.9661 103.304 94.2038 103.244 90.6181C103.208 88.4851 103.074 86.9292 102.653 85.3366C102.556 84.9682 102.431 84.5836 102.289 84.1764C97.0798 85.5414 91.7238 84.3114 88.0515 83.5006C84.9004 82.8048 82.3427 82.1872 79.8291 81.9575C77.4198 81.7374 75.5758 81.9446 74.037 82.6099L67.0356 85.6374L65.7246 78.137C64.9281 73.5846 65.6871 66.4804 69.8925 60.8001C73.7084 55.6472 79.7976 52.3976 88.0985 52.5302C90.5184 46.2528 95.6171 41.9001 100.7 39.3654C104.021 37.7095 107.584 36.6799 110.938 36.3144C111.766 36.2243 112.618 36.172 113.478 36.166L117.99 11.7506L129.813 13.9226ZM28.1582 123.413C26.077 122.504 23.8604 122.568 21.9708 123.671C23.2538 123.41 24.5271 123.297 25.7552 123.292C26.5511 123.289 27.3543 123.334 28.1582 123.413ZM223.293 16.915C223.851 21.3022 225.372 25.9486 226.972 32.2713C228.474 38.2118 229.863 45.1083 229.332 52.3856C228.789 59.8192 226.26 67.4409 220.311 74.8478C214.441 82.1555 205.444 89.0079 192.337 95.3762L187.077 84.5866C199.155 78.7186 206.514 72.8455 210.934 67.3435C215.273 61.9409 216.964 56.6644 217.34 51.5145C217.728 46.2075 216.734 40.8272 215.313 35.2089C214.93 33.6933 214.498 32.0958 214.057 30.4626C207.425 36.4803 197.465 43.0338 184.247 46.8033C175.428 49.3189 167.196 54.4521 160.394 60.0579C153.6 65.6564 148.546 71.4665 146.07 74.9259L136.286 67.9529C139.383 63.625 145.157 57.0514 152.739 50.8035C160.312 44.5627 170.002 38.3845 180.944 35.2636C199.2 30.057 209.615 18.748 212.206 14.5359L221.14 0L223.293 16.915ZM149.225 18.7198L146.606 33.4471L156.817 28.2164L162.308 38.8927L130.537 55.167L137.386 16.6259L149.225 18.7198Z" fill="#407DEE"/>
<path d="M235.275 163.35L231.357 164.933V115.391H243.765V175.642H231.357L182.565 128.056L186.483 126.473V175.642H174.076V115.391H186.483L235.275 163.35Z" fill="#1A1A1A"/>
<path d="M268.708 150.499V165.305H315.261V175.642H256.3V115.391H315.168V125.728H268.708V140.721H306.771V150.499H268.708Z" fill="#1A1A1A"/>
<path d="M326.134 175.642V115.391H367.09C371.754 115.391 375.797 116.043 379.218 117.347C382.701 118.589 385.406 120.575 387.334 123.307C389.262 125.976 390.226 129.422 390.226 133.643C390.226 136.499 389.729 138.92 388.734 140.907C387.738 142.894 386.339 144.508 384.535 145.749C382.794 146.991 380.773 147.953 378.471 148.636C376.17 149.257 373.713 149.661 371.101 149.847L369.795 149.102C374.149 149.164 377.725 149.536 380.524 150.219C383.323 150.84 385.406 152.02 386.774 153.758C388.205 155.434 388.92 157.948 388.92 161.301V175.642H376.512V162.139C376.512 159.842 376.108 158.073 375.299 156.831C374.491 155.527 373.029 154.627 370.915 154.13C368.862 153.634 365.877 153.385 361.959 153.385H338.542V175.642H326.134ZM338.542 143.701H367.09C370.573 143.701 373.216 142.863 375.02 141.186C376.885 139.51 377.818 137.244 377.818 134.388C377.818 131.657 376.885 129.577 375.02 128.149C373.216 126.721 370.573 126.007 367.09 126.007H338.542V143.701Z" fill="#1A1A1A"/>
<path d="M456.759 149.009V115.391H469.167V150.312C469.167 154.286 468.577 157.762 467.395 160.742C466.275 163.722 464.658 166.236 462.544 168.285C460.429 170.334 457.941 172.01 455.08 173.314C452.281 174.555 449.203 175.455 445.844 176.014C442.548 176.573 439.065 176.852 435.396 176.852C431.602 176.852 427.994 176.573 424.574 176.014C421.153 175.455 418.012 174.555 415.151 173.314C412.352 172.01 409.927 170.334 407.874 168.285C405.822 166.236 404.205 163.722 403.023 160.742C401.904 157.762 401.344 154.286 401.344 150.312V115.391H413.752V149.009C413.752 153.727 414.685 157.328 416.551 159.811C418.416 162.232 420.966 163.908 424.201 164.839C427.497 165.709 431.229 166.143 435.396 166.143C439.438 166.143 443.046 165.709 446.217 164.839C449.452 163.908 452.002 162.232 453.867 159.811C455.796 157.328 456.759 153.727 456.759 149.009Z" fill="#1A1A1A"/>
<path d="M541.545 163.35L537.627 164.933V115.391H550.034V175.642H537.627L488.835 128.056L492.753 126.473V175.642H480.345V115.391H492.753L541.545 163.35Z" fill="#1A1A1A"/>
</svg>
