<svg width="550" height="194" viewBox="0 0 550 194" fill="none" xmlns="http://www.w3.org/2000/svg">
<path d="M129.577 13.9226L122.608 51.7332L115.588 48.4792C115.223 48.3104 114.056 48.0251 112.041 48.2448C110.137 48.4526 107.951 49.0665 105.881 50.1003C101.656 52.2111 98.878 55.4904 98.5326 59.5188L97.9701 66.0778L91.4893 64.9097C83.9987 63.5583 80.9025 65.9198 79.4144 67.9333C78.9681 68.5372 78.6048 69.1978 78.3128 69.8787C79.1549 69.8897 79.9785 69.9345 80.7778 70.0077C84.2434 70.3249 87.7456 71.1799 90.4814 71.7851C96.9429 73.2143 99.1916 73.0635 100.732 71.6601L106.088 66.7809L109.885 72.9531C111.963 76.33 113.287 79.3118 114.069 82.2739C114.848 85.2277 115.014 87.8893 115.057 90.415C115.137 95.1746 114.816 99.9234 116.44 108.326C117.039 109.49 117.768 110.685 118.663 111.904C120.213 114.017 122.282 116.243 125.069 118.526L127.968 120.897L119.35 157.481L124.788 154.997L132.878 162.364L141.433 130.866L153.016 134.011L139.32 184.459L122.565 169.204L102.048 178.588L114.6 125.292C114.02 124.747 113.465 124.197 112.932 123.647C102.919 131.207 88.9535 141.537 75.0157 151.36C59.0017 162.645 42.6549 173.544 32.4666 178.709L32.4705 178.713C28.681 180.723 27.4471 182.099 26.896 183.26C26.3035 184.509 25.9269 186.723 26.7241 191.733L14.8719 193.62C13.9672 187.934 13.868 182.718 16.0555 178.111C16.993 176.137 18.2515 174.478 19.7315 173.041C18.9417 172.708 18.2901 172.611 17.7197 172.607C15.672 172.594 12.5695 173.707 6.60973 177.638L0 167.622C5.9814 163.676 11.7912 160.567 17.8017 160.606C22.7917 160.64 26.9363 162.783 30.7009 166.052C40.1437 160.763 53.9482 151.525 68.1013 141.551C78.0525 134.538 88.0241 127.253 96.5364 120.932L39.0451 138.738L37.2207 138.132C32.5558 136.585 28.8772 135.28 25.7553 135.292C24.403 135.298 23.5561 135.573 22.9583 135.96C22.382 136.334 21.5265 137.14 20.7238 139.117L9.60598 134.605C11.1373 130.833 13.3907 127.863 16.4267 125.893C18.1368 124.784 19.9302 124.108 21.7082 123.721L15.368 113.615C22.3636 109.225 30.3886 110.329 36.1465 114.19C39.7397 116.599 42.6827 120.227 44.1625 124.589L103.892 106.088C102.882 98.9661 103.117 94.2038 103.056 90.6181C103.02 88.4851 102.886 86.9292 102.466 85.3366C102.369 84.9682 102.245 84.5836 102.103 84.1764C96.9033 85.5414 91.557 84.3114 87.8914 83.5006C84.746 82.8048 82.193 82.1872 79.684 81.9575C77.279 81.7374 75.4384 81.9446 73.9024 82.6099L66.9137 85.6374L65.6051 78.137C64.8101 73.5846 65.5677 66.4804 69.7655 60.8001C73.5744 55.6472 79.6525 52.3976 87.9383 52.5302C90.3539 46.2528 95.4433 41.9001 100.517 39.3654C103.832 37.7095 107.389 36.6799 110.736 36.3144C111.563 36.2243 112.413 36.172 113.272 36.166L117.776 11.7506L129.577 13.9226ZM28.107 123.413C26.0296 122.504 23.817 122.568 21.9309 123.671C23.2115 123.41 24.4825 123.297 25.7084 123.292C26.5028 123.289 27.3046 123.334 28.107 123.413ZM222.887 16.915C223.444 21.3022 224.963 25.9486 226.559 32.2713C228.059 38.2118 229.445 45.1083 228.915 52.3856C228.373 59.8192 225.848 67.4409 219.91 74.8478C214.051 82.1555 205.071 89.0079 191.987 95.3762L186.737 84.5866C198.793 78.7186 206.139 72.8455 210.55 67.3435C214.882 61.9409 216.57 56.6644 216.945 51.5145C217.332 46.2075 216.34 40.8272 214.922 35.2089C214.539 33.6933 214.108 32.0958 213.668 30.4626C207.048 36.4803 197.106 43.0338 183.912 46.8033C175.109 49.3189 166.893 54.4521 160.102 60.0579C153.321 65.6564 148.276 71.4665 145.805 74.9259L136.039 67.9529C139.13 63.625 144.893 57.0514 152.461 50.8035C160.021 44.5627 169.693 38.3845 180.615 35.2636C198.838 30.057 209.234 18.748 211.82 14.5359L220.738 0L222.887 16.915ZM148.953 18.7198L146.34 33.4471L156.532 28.2164L162.013 38.8927L130.3 55.167L137.136 16.6259L148.953 18.7198Z" fill="#407DEE"/>
<path d="M234.847 163.35L230.936 164.933V115.391H243.322V175.642H230.936L182.233 128.056L186.144 126.473V175.642H173.759V115.391H186.144L234.847 163.35Z" fill="white"/>
<path d="M268.22 150.499V165.305H314.688V175.642H255.834V115.391H314.595V125.728H268.22V140.721H306.214V150.499H268.22Z" fill="white"/>
<path d="M325.542 175.642V115.391H366.422C371.078 115.391 375.114 116.043 378.528 117.347C382.005 118.589 384.705 120.575 386.63 123.307C388.554 125.976 389.517 129.422 389.517 133.643C389.517 136.499 389.02 138.92 388.027 140.907C387.033 142.894 385.637 144.508 383.836 145.749C382.098 146.991 380.08 147.953 377.783 148.636C375.486 149.257 373.034 149.661 370.427 149.847L369.123 149.102C373.469 149.164 377.038 149.536 379.832 150.219C382.626 150.84 384.705 152.02 386.071 153.758C387.499 155.434 388.213 157.948 388.213 161.301V175.642H375.828V162.139C375.828 159.842 375.424 158.073 374.617 156.831C373.81 155.527 372.351 154.627 370.24 154.13C368.192 153.634 365.212 153.385 361.301 153.385H337.927V175.642H325.542ZM337.927 143.701H366.422C369.899 143.701 372.537 142.863 374.338 141.186C376.2 139.51 377.131 137.244 377.131 134.388C377.131 131.657 376.2 129.577 374.338 128.149C372.537 126.721 369.899 126.007 366.422 126.007H337.927V143.701Z" fill="white"/>
<path d="M455.929 149.009V115.391H468.314V150.312C468.314 154.286 467.725 157.762 466.545 160.742C465.428 163.722 463.813 166.236 461.703 168.285C459.592 170.334 457.109 172.01 454.253 173.314C451.459 174.555 448.386 175.455 445.034 176.014C441.743 176.573 438.267 176.852 434.604 176.852C430.817 176.852 427.216 176.573 423.802 176.014C420.387 175.455 417.252 174.555 414.396 173.314C411.603 172.01 409.182 170.334 407.133 168.285C405.084 166.236 403.47 163.722 402.29 160.742C401.173 157.762 400.614 154.286 400.614 150.312V115.391H413V149.009C413 153.727 413.931 157.328 415.793 159.811C417.656 162.232 420.201 163.908 423.429 164.839C426.72 165.709 430.445 166.143 434.604 166.143C438.639 166.143 442.24 165.709 445.406 164.839C448.634 163.908 451.18 162.232 453.042 159.811C454.967 157.328 455.929 153.727 455.929 149.009Z" fill="white"/>
<path d="M540.56 163.35L536.649 164.933V115.391H549.034V175.642H536.649L487.946 128.056L491.857 126.473V175.642H479.472V115.391H491.857L540.56 163.35Z" fill="white"/>
</svg>
